<?xml version="1.0" encoding="iso-8859-1"?>
<!-- Generator: Adobe Illustrator 19.0.0, SVG Export Plug-In . SVG Version: 6.00 Build 0)  -->
<svg version="1.1" id="Capa_1" xmlns="http://www.w3.org/2000/svg" xmlns:xlink="http://www.w3.org/1999/xlink" x="0px" y="0px"
	 viewBox="0 0 512 512" style="enable-background:new 0 0 512 512;" xml:space="preserve">
<g>
	<g>
		<g>
			<path d="M296.618,219.983c-40.08-0.07-73.139,31.372-75.078,71.405s27.928,74.522,67.828,78.325
				c39.9,3.803,75.743-24.424,81.402-64.103v-21.274C365.462,247.448,333.886,220.045,296.618,219.983z"/>
			<path d="M185.39,105.931c114.847,0,185.379-30.808,185.379-52.966S300.237,0,185.39,0S0.011,30.808,0.011,52.966
				S70.544,105.931,185.39,105.931z"/>
			<path d="M406.741,287.814c-3.687-58.078-51.929-103.26-110.123-103.141c-3.266,0-6.444,0.177-9.622,0.441
				c-5.65,1.059-11.299,2.03-17.125,2.913c-56.422,14.255-92.012,69.951-81.243,127.14c10.768,57.19,64.177,96.128,121.92,88.886
				S410.429,345.891,406.741,287.814z M290.583,387.369c-48.689-3.182-86.554-43.602-86.554-92.395
				c0-48.793,37.865-89.213,86.554-92.395c48.689-3.182,91.492,31.967,97.842,80.345v0.265c1.177,7.813,1.177,15.757,0,23.57v0.265
				C382.075,355.402,339.272,390.55,290.583,387.369z"/>
			<path d="M370.77,190.852v-37.076c-11.157,8.138-23.518,14.482-36.634,18.803C347.231,176.707,359.595,182.874,370.77,190.852z"/>
			<path d="M175.15,335.272c-5.561-0.088-11.123-0.177-16.508-0.353c-3.154-0.095-6.018-1.865-7.512-4.643s-1.394-6.144,0.265-8.828
				c1.659-2.684,4.624-4.279,7.777-4.184c3.796,0.177,7.68,0.177,11.476,0.265c-1.305-7.434-1.984-14.963-2.03-22.51
				c0-10.27,1.275-20.5,3.796-30.455c-4.679-0.088-9.358-0.088-13.859-0.265c-3.156-0.124-6.005-1.922-7.474-4.718
				c-1.469-2.795-1.334-6.162,0.353-8.832c1.688-2.669,4.672-4.234,7.827-4.106c6.091,0.265,12.447,0.353,18.714,0.441
				c8.692-21.305,22.926-39.897,41.225-53.848c-11.211,0.618-22.51,0.971-33.81,0.971c-9.092,0-18.097-0.177-26.836-0.618
				c-3.146-0.115-5.99-1.904-7.457-4.69c-1.467-2.786-1.332-6.143,0.354-8.802c1.685-2.659,4.664-4.214,7.809-4.076
				c8.563,0.353,17.302,0.53,26.13,0.53c26.788,0.091,53.548-1.768,80.066-5.561c6.407-1.639,12.928-2.79,19.509-3.443
				c54.555-10.77,85.804-29.308,85.804-43.961v-40.43c-33.898,26.483-111.404,40.43-185.379,40.43S33.909,109.639,0.011,83.156
				v40.43c0,9.799,14.565,24.629,55.437,36.723c4.23,1.219,6.914,5.369,6.291,9.726c-0.622,4.358-4.361,7.59-8.763,7.576
				c-0.837,0.013-1.672-0.106-2.472-0.353c-18.123-4.635-35.239-12.565-50.494-23.393v40.342c0,9.799,14.565,24.629,55.437,36.723
				c4.23,1.219,6.914,5.369,6.291,9.726s-4.361,7.59-8.763,7.576c-0.837,0.013-1.672-0.106-2.472-0.353
				c-18.123-4.635-35.239-12.565-50.494-23.393v40.342c0,9.799,14.565,24.629,55.437,36.723c4.23,1.219,6.914,5.369,6.291,9.726
				c-0.622,4.358-4.361,7.59-8.763,7.576c-0.837,0.013-1.672-0.106-2.472-0.353c-18.123-4.635-35.239-12.565-50.494-23.393v40.342
				c0,24.982,79.272,52.966,185.379,52.966c7.945,0,15.801-0.177,23.481-0.441C193.455,373.458,181.87,355.352,175.15,335.272z
				 M132.337,324.414c-0.45,4.481-4.236,7.884-8.739,7.857c-0.326,0.011-0.652-0.019-0.971-0.088
				c-12.447-1.324-24.541-3.09-35.928-5.12c-4.801-0.904-7.962-5.526-7.062-10.328c0.397-2.307,1.707-4.357,3.634-5.686
				c1.927-1.329,4.308-1.825,6.606-1.377c10.946,2.03,22.687,3.708,34.692,4.943c2.33,0.269,4.457,1.453,5.914,3.29
				C131.939,319.743,132.606,322.084,132.337,324.414z M132.337,253.794c-0.45,4.481-4.236,7.884-8.739,7.856
				c-0.326,0.011-0.652-0.019-0.971-0.088c-12.447-1.324-24.541-3.09-35.928-5.12c-4.776-0.903-7.928-5.493-7.054-10.274
				c0.874-4.782,5.445-7.961,10.232-7.116c10.946,2.03,22.687,3.708,34.692,4.944c2.33,0.269,4.457,1.453,5.914,3.29
				C131.939,249.123,132.606,251.464,132.337,253.794z M132.337,183.173c-0.45,4.481-4.236,7.884-8.739,7.856
				c-0.326,0.011-0.652-0.019-0.971-0.088c-12.447-1.324-24.541-3.09-35.928-5.12c-4.776-0.903-7.928-5.493-7.054-10.275
				s5.445-7.961,10.232-7.116c10.946,2.03,22.687,3.708,34.692,4.944c2.33,0.269,4.457,1.453,5.914,3.29
				C131.939,178.502,132.606,180.843,132.337,183.173z"/>
			<path d="M504.243,466.803L403.167,365.727c-3.256,4.954-6.854,9.673-10.77,14.124c-3.949,4.406-8.196,8.535-12.712,12.359
				c-4.466,3.908-9.216,7.478-14.212,10.681l101.341,101.341c4.958,4.973,11.692,7.768,18.714,7.768
				c7.023,0,13.756-2.795,18.714-7.768C514.571,493.893,514.571,477.142,504.243,466.803z"/>
		</g>
	</g>
</g>
<g>
</g>
<g>
</g>
<g>
</g>
<g>
</g>
<g>
</g>
<g>
</g>
<g>
</g>
<g>
</g>
<g>
</g>
<g>
</g>
<g>
</g>
<g>
</g>
<g>
</g>
<g>
</g>
<g>
</g>
</svg>
