<svg id="_x33_0" enable-background="new 0 0 64 64" height="512" viewBox="0 0 64 64" width="512" xmlns="http://www.w3.org/2000/svg"><path d="m61 31h-.222c-.152-.828-.449-1.726-.766-2.664-.497-1.474-1.012-2.997-1.012-4.369 0-2 1.142-5.305 1.632-6.634.244-.66.368-1.351.368-2.05 0-1.22-.145-2.772-1.292-3.989l-.181-.182c-.619-.619-1.331-1.132-2.117-1.525-.769-.384-1.629-.587-2.487-.587-1.508 0-2.925.587-3.99 1.652-.5.5-.899 1.086-1.186 1.741-.053.122-.122.275-.191.428-1.694-6.832-7.997-11.821-15.556-11.821-7.643 0-14.081 5.099-15.686 12.117-.429-.071-.866-.117-1.314-.117-4.411 0-8 3.589-8 8 0 1.537.437 3.001 1.238 4.265-2.451.754-4.238 3.039-4.238 5.735h-3c-1.103 0-2 .897-2 2v30h7 1 16 1 6 1 22 1 7v-30c0-1.103-.897-2-2-2zm-9.419-17.806c.186-.425.443-.804.767-1.127 1.075-1.078 2.804-1.374 4.168-.691.593.297 1.13.684 1.596 1.149l.16.16c.51.543.728 1.319.728 2.598 0 .463-.082.919-.244 1.357-.655 1.776-1.756 5.088-1.756 7.327 0 1.7.594 3.458 1.117 5.009.246.727.471 1.417.616 2.024h-1.733c-1.103 0-2 .897-2 2h-10.051c-.322-3.552-2.342-6.613-5.238-8.383.891-.675 2.297-1.425 3.51-2.066 1.795-.951 3.491-1.849 4.486-2.844 1.588-1.588 3.108-4.762 3.874-6.513zm-18.581 33.806h22v6h-22zm0-2v-10h22v10zm-24 2h16v6h-16zm0-2v-10h16v10zm7-13c0-2.206 1.794-4 4-4 1.586 0 2.963.708 3.793 1.92-.388.968-.645 2.001-.743 3.08h-6.909c-.084-.325-.141-.657-.141-1zm8.797-4.007c-.698-.734-1.563-1.275-2.533-1.608-.164-.443-.264-.905-.264-1.385 0-2.206 1.794-4 4-4 1.798 0 3.304 1.2 3.807 2.835-2.06.853-3.803 2.314-5.01 4.158zm6.938-4.756c-.747-2.426-2.994-4.197-5.653-4.233.452-6.172 2.383-11.024 6.335-15.912.193-.02.388-.034.583-.047v20.006c-.429.039-.852.099-1.265.186zm3.265-20.19c.199.013.398.025.595.046 4.27 5.289 6.216 10.712 6.388 17.851-1.693.898-3.275 1.768-4.218 2.734-.877-.321-1.801-.54-2.765-.627zm12.99 12.865c-.534.924-1.12 1.804-1.697 2.381-.506.506-1.372 1.047-2.348 1.594-.296-6.282-1.955-11.323-5.341-16.135 5.297 1.758 9.134 6.462 9.386 12.16zm-18.585-12.169c-2.973 4.221-4.638 8.624-5.212 13.778-.826-1.7-2.23-3.066-3.962-3.834 1.028-4.707 4.567-8.43 9.174-9.944zm-12.405 11.257c2.925 0 5.364 2.104 5.891 4.878-1.73 1.054-2.891 2.952-2.891 5.122 0 .341.035.676.091 1.006-.031 0-.06-.006-.091-.006-1.285 0-2.475.41-3.452 1.101-1.019-1.191-2.428-1.924-3.981-2.068-1.009-1.107-1.567-2.523-1.567-4.033 0-3.309 2.691-6 6-6zm-5 12c1.231 0 2.359.557 3.123 1.518-.704.983-1.123 2.183-1.123 3.482 0 .339.035.672.09 1h-5.09c0-.725-.392-1.355-.971-1.706-.007-.098-.029-.195-.029-.294 0-2.206 1.794-4 4-4zm-5 34h-4v-28h4zm2 0v-6h16v6zm22 0h-4v-28h4zm0-30h-4c-.803 0-1.492.479-1.81 1.163.85-4.085 4.477-7.163 8.81-7.163 4.624 0 8.442 3.507 8.941 8h-9.941c0-1.103-.897-2-2-2zm2 30v-6h22v6zm28 0h-4v-28h4z"/><path d="m20 37h-6c-1.654 0-3 1.346-3 3s1.346 3 3 3h1v-2h-1c-.551 0-1-.448-1-1s.449-1 1-1h6c.551 0 1 .448 1 1s-.449 1-1 1h-1v2h1c1.654 0 3-1.346 3-3s-1.346-3-3-3z"/><path d="m37 27h-2c0 .552-.449 1-1 1s-1-.448-1-1h-2c0 1.654 1.346 3 3 3s3-1.346 3-3z"/><path d="m17 20c1.654 0 3-1.346 3-3h-2c0 .552-.449 1-1 1s-1-.448-1-1h-2c0 1.654 1.346 3 3 3z"/><path d="m57 16v-2c-.952 0-1-.833-1-1h-2c0 1.491 1.03 3 3 3z"/></svg>